<mxfile host="app.diagrams.net" agent="Mozilla/5.0 (Windows NT 10.0; Win64; x64) AppleWebKit/537.36 (KHTML, like Gecko) Chrome/119.0.6045.9 Safari/537.36" version="24.7.6">
  <diagram name="第 1 页" id="p2EqYzyDLaV86DFks5Vr">
    <mxGraphModel dx="2261" dy="757" grid="1" gridSize="10" guides="1" tooltips="1" connect="1" arrows="1" fold="1" page="1" pageScale="1" pageWidth="827" pageHeight="1169" math="0" shadow="0">
      <root>
        <mxCell id="0" />
        <mxCell id="1" parent="0" />
        <mxCell id="WRbdmsVeA1THmS9mT6Gk-38" value="&lt;div style=&quot;&quot;&gt;&lt;b style=&quot;background-color: initial;&quot;&gt;&amp;nbsp; &amp;nbsp; ES Retrieval&lt;/b&gt;&lt;/div&gt;&lt;div&gt;&lt;b&gt;&lt;br&gt;&lt;/b&gt;&lt;div&gt;&lt;b style=&quot;background-color: initial;&quot;&gt;&lt;br&gt;&lt;/b&gt;&lt;/div&gt;&lt;div style=&quot;text-align: left;&quot;&gt;&lt;b style=&quot;background-color: initial;&quot;&gt;#1&lt;/b&gt;&lt;br&gt;&lt;/div&gt;&lt;div style=&quot;text-align: left;&quot;&gt;&lt;b style=&quot;background-color: initial;&quot;&gt;&lt;br&gt;&lt;/b&gt;&lt;/div&gt;&lt;div style=&quot;text-align: left;&quot;&gt;&lt;b style=&quot;background-color: initial;&quot;&gt;&lt;br&gt;&lt;/b&gt;&lt;/div&gt;&lt;div&gt;&lt;b&gt;&lt;br&gt;&lt;/b&gt;&lt;/div&gt;&lt;div style=&quot;text-align: left;&quot;&gt;&lt;b&gt;#2&lt;/b&gt;&lt;/div&gt;&lt;div&gt;&lt;b&gt;&lt;br&gt;&lt;/b&gt;&lt;/div&gt;&lt;div&gt;&lt;b&gt;...&lt;/b&gt;&lt;/div&gt;&lt;div&gt;&lt;b&gt;&lt;br&gt;&lt;/b&gt;&lt;/div&gt;&lt;div style=&quot;text-align: left;&quot;&gt;&lt;b&gt;#m&lt;/b&gt;&lt;/div&gt;&lt;/div&gt;" style="rounded=1;whiteSpace=wrap;html=1;strokeWidth=2;dashed=1;align=center;" vertex="1" parent="1">
          <mxGeometry x="-170" y="440" width="127.25" height="210" as="geometry" />
        </mxCell>
        <mxCell id="WRbdmsVeA1THmS9mT6Gk-39" value="" style="sketch=0;pointerEvents=1;shadow=0;dashed=0;html=1;strokeColor=none;fillColor=#434445;aspect=fixed;labelPosition=center;verticalLabelPosition=bottom;verticalAlign=top;align=center;outlineConnect=0;shape=mxgraph.vvd.document;" vertex="1" parent="1">
          <mxGeometry x="-118" y="488.15" width="23.25" height="31.85" as="geometry" />
        </mxCell>
        <mxCell id="WRbdmsVeA1THmS9mT6Gk-40" value="" style="sketch=0;pointerEvents=1;shadow=0;dashed=0;html=1;strokeColor=none;fillColor=#434445;aspect=fixed;labelPosition=center;verticalLabelPosition=bottom;verticalAlign=top;align=center;outlineConnect=0;shape=mxgraph.vvd.document;" vertex="1" parent="1">
          <mxGeometry x="-118" y="550" width="23.25" height="31.85" as="geometry" />
        </mxCell>
        <mxCell id="WRbdmsVeA1THmS9mT6Gk-41" value="" style="sketch=0;pointerEvents=1;shadow=0;dashed=0;html=1;strokeColor=none;fillColor=#434445;aspect=fixed;labelPosition=center;verticalLabelPosition=bottom;verticalAlign=top;align=center;outlineConnect=0;shape=mxgraph.vvd.document;" vertex="1" parent="1">
          <mxGeometry x="-118" y="610" width="23.25" height="31.85" as="geometry" />
        </mxCell>
        <mxCell id="WRbdmsVeA1THmS9mT6Gk-42" value="&lt;div style=&quot;&quot;&gt;&lt;b style=&quot;background-color: initial;&quot;&gt;&amp;nbsp; &amp;nbsp;Dense Retrieval&lt;/b&gt;&lt;/div&gt;&lt;div&gt;&lt;b&gt;&lt;br&gt;&lt;/b&gt;&lt;div&gt;&lt;b style=&quot;background-color: initial;&quot;&gt;&lt;br&gt;&lt;/b&gt;&lt;/div&gt;&lt;div style=&quot;text-align: left;&quot;&gt;&lt;b style=&quot;background-color: initial;&quot;&gt;#1&lt;/b&gt;&lt;br&gt;&lt;/div&gt;&lt;div style=&quot;text-align: left;&quot;&gt;&lt;b style=&quot;background-color: initial;&quot;&gt;&lt;br&gt;&lt;/b&gt;&lt;/div&gt;&lt;div style=&quot;text-align: left;&quot;&gt;&lt;b style=&quot;background-color: initial;&quot;&gt;&lt;br&gt;&lt;/b&gt;&lt;/div&gt;&lt;div&gt;&lt;b&gt;&lt;br&gt;&lt;/b&gt;&lt;/div&gt;&lt;div style=&quot;text-align: left;&quot;&gt;&lt;b&gt;#2&lt;/b&gt;&lt;/div&gt;&lt;div&gt;&lt;b&gt;&lt;br&gt;&lt;/b&gt;&lt;/div&gt;&lt;div&gt;&lt;b&gt;...&lt;/b&gt;&lt;/div&gt;&lt;div&gt;&lt;b&gt;&lt;br&gt;&lt;/b&gt;&lt;/div&gt;&lt;div style=&quot;text-align: left;&quot;&gt;&lt;b&gt;#n&lt;/b&gt;&lt;/div&gt;&lt;/div&gt;" style="rounded=1;whiteSpace=wrap;html=1;strokeWidth=2;dashed=1;align=center;" vertex="1" parent="1">
          <mxGeometry x="-8.120000000000005" y="440" width="130.12" height="210" as="geometry" />
        </mxCell>
        <mxCell id="WRbdmsVeA1THmS9mT6Gk-43" value="" style="sketch=0;pointerEvents=1;shadow=0;dashed=0;html=1;strokeColor=none;fillColor=#434445;aspect=fixed;labelPosition=center;verticalLabelPosition=bottom;verticalAlign=top;align=center;outlineConnect=0;shape=mxgraph.vvd.document;" vertex="1" parent="1">
          <mxGeometry x="46.370000000000005" y="488.15" width="23.25" height="31.85" as="geometry" />
        </mxCell>
        <mxCell id="WRbdmsVeA1THmS9mT6Gk-44" value="" style="sketch=0;pointerEvents=1;shadow=0;dashed=0;html=1;strokeColor=none;fillColor=#434445;aspect=fixed;labelPosition=center;verticalLabelPosition=bottom;verticalAlign=top;align=center;outlineConnect=0;shape=mxgraph.vvd.document;" vertex="1" parent="1">
          <mxGeometry x="46.370000000000005" y="550" width="23.25" height="31.85" as="geometry" />
        </mxCell>
        <mxCell id="WRbdmsVeA1THmS9mT6Gk-45" value="" style="sketch=0;pointerEvents=1;shadow=0;dashed=0;html=1;strokeColor=none;fillColor=#434445;aspect=fixed;labelPosition=center;verticalLabelPosition=bottom;verticalAlign=top;align=center;outlineConnect=0;shape=mxgraph.vvd.document;" vertex="1" parent="1">
          <mxGeometry x="46.370000000000005" y="610" width="23.25" height="31.85" as="geometry" />
        </mxCell>
        <mxCell id="WRbdmsVeA1THmS9mT6Gk-46" value="&lt;div style=&quot;&quot;&gt;&lt;b style=&quot;background-color: initial;&quot;&gt;&amp;nbsp;Sparse Retrieval&lt;/b&gt;&lt;/div&gt;&lt;div&gt;&lt;b&gt;&lt;br&gt;&lt;/b&gt;&lt;div&gt;&lt;b style=&quot;background-color: initial;&quot;&gt;&lt;br&gt;&lt;/b&gt;&lt;/div&gt;&lt;div style=&quot;text-align: left;&quot;&gt;&lt;b style=&quot;background-color: initial;&quot;&gt;#1&lt;/b&gt;&lt;br&gt;&lt;/div&gt;&lt;div style=&quot;text-align: left;&quot;&gt;&lt;b style=&quot;background-color: initial;&quot;&gt;&lt;br&gt;&lt;/b&gt;&lt;/div&gt;&lt;div style=&quot;text-align: left;&quot;&gt;&lt;b style=&quot;background-color: initial;&quot;&gt;&lt;br&gt;&lt;/b&gt;&lt;/div&gt;&lt;div&gt;&lt;b&gt;&lt;br&gt;&lt;/b&gt;&lt;/div&gt;&lt;div style=&quot;text-align: left;&quot;&gt;&lt;b&gt;#2&lt;/b&gt;&lt;/div&gt;&lt;div&gt;&lt;b&gt;&lt;br&gt;&lt;/b&gt;&lt;/div&gt;&lt;div&gt;&lt;b&gt;...&lt;/b&gt;&lt;/div&gt;&lt;div&gt;&lt;b&gt;&lt;br&gt;&lt;/b&gt;&lt;/div&gt;&lt;div style=&quot;text-align: left;&quot;&gt;&lt;b&gt;#q&lt;/b&gt;&lt;/div&gt;&lt;/div&gt;" style="rounded=1;whiteSpace=wrap;html=1;strokeWidth=2;dashed=1;align=center;" vertex="1" parent="1">
          <mxGeometry x="160.75" y="440" width="130" height="210" as="geometry" />
        </mxCell>
        <mxCell id="WRbdmsVeA1THmS9mT6Gk-47" value="" style="sketch=0;pointerEvents=1;shadow=0;dashed=0;html=1;strokeColor=none;fillColor=#434445;aspect=fixed;labelPosition=center;verticalLabelPosition=bottom;verticalAlign=top;align=center;outlineConnect=0;shape=mxgraph.vvd.document;" vertex="1" parent="1">
          <mxGeometry x="215.24" y="488.15" width="23.25" height="31.85" as="geometry" />
        </mxCell>
        <mxCell id="WRbdmsVeA1THmS9mT6Gk-48" value="" style="sketch=0;pointerEvents=1;shadow=0;dashed=0;html=1;strokeColor=none;fillColor=#434445;aspect=fixed;labelPosition=center;verticalLabelPosition=bottom;verticalAlign=top;align=center;outlineConnect=0;shape=mxgraph.vvd.document;" vertex="1" parent="1">
          <mxGeometry x="215.24" y="550" width="23.25" height="31.85" as="geometry" />
        </mxCell>
        <mxCell id="WRbdmsVeA1THmS9mT6Gk-49" value="" style="sketch=0;pointerEvents=1;shadow=0;dashed=0;html=1;strokeColor=none;fillColor=#434445;aspect=fixed;labelPosition=center;verticalLabelPosition=bottom;verticalAlign=top;align=center;outlineConnect=0;shape=mxgraph.vvd.document;" vertex="1" parent="1">
          <mxGeometry x="215.24" y="610" width="23.25" height="31.85" as="geometry" />
        </mxCell>
        <mxCell id="WRbdmsVeA1THmS9mT6Gk-50" value="数量100" style="text;spacingTop=-5;align=center;strokeWidth=3;fontSize=14;" vertex="1" parent="1">
          <mxGeometry x="-124.75" y="660" width="30" height="20" as="geometry" />
        </mxCell>
        <mxCell id="WRbdmsVeA1THmS9mT6Gk-51" value="数量100" style="text;spacingTop=-5;align=center;strokeWidth=3;fontSize=14;" vertex="1" parent="1">
          <mxGeometry x="46.370000000000005" y="660" width="30" height="20" as="geometry" />
        </mxCell>
        <mxCell id="WRbdmsVeA1THmS9mT6Gk-52" value="数量100" style="text;spacingTop=-5;align=center;strokeWidth=3;fontSize=14;" vertex="1" parent="1">
          <mxGeometry x="208.49" y="660" width="30" height="20" as="geometry" />
        </mxCell>
        <mxCell id="WRbdmsVeA1THmS9mT6Gk-53" value="+" style="text;spacingTop=-5;align=center;strokeWidth=3;fontSize=28;" vertex="1" parent="1">
          <mxGeometry x="-38.120000000000005" y="520" width="30" height="36" as="geometry" />
        </mxCell>
        <mxCell id="WRbdmsVeA1THmS9mT6Gk-54" value="+" style="text;spacingTop=-5;align=center;strokeWidth=3;fontSize=28;" vertex="1" parent="1">
          <mxGeometry x="122" y="520" width="30" height="36" as="geometry" />
        </mxCell>
        <mxCell id="WRbdmsVeA1THmS9mT6Gk-55" value="" style="edgeStyle=none;noEdgeStyle=1;strokeColor=#990000;strokeWidth=2;" edge="1" parent="1">
          <mxGeometry width="100" height="100" relative="1" as="geometry">
            <mxPoint x="311" y="538" as="sourcePoint" />
            <mxPoint x="351" y="537.5" as="targetPoint" />
          </mxGeometry>
        </mxCell>
        <mxCell id="WRbdmsVeA1THmS9mT6Gk-56" value="rerank model" style="whiteSpace=wrap;align=center;verticalAlign=middle;fontStyle=1;strokeWidth=3;fillColor=#FFFFCC" vertex="1" parent="1">
          <mxGeometry x="360" y="508" width="90" height="60" as="geometry" />
        </mxCell>
        <mxCell id="WRbdmsVeA1THmS9mT6Gk-57" value="重排" style="text;spacingTop=-5;align=center;strokeWidth=3;fontSize=14;" vertex="1" parent="1">
          <mxGeometry x="311" y="510" width="30" height="20" as="geometry" />
        </mxCell>
        <mxCell id="WRbdmsVeA1THmS9mT6Gk-58" value="&lt;div style=&quot;&quot;&gt;&lt;b style=&quot;background-color: initial;&quot;&gt;&amp;nbsp; &amp;nbsp; &amp;nbsp;doucments&amp;nbsp; &amp;nbsp; &amp;nbsp;&amp;nbsp;&lt;/b&gt;&lt;/div&gt;&lt;div&gt;&lt;b&gt;&lt;br&gt;&lt;/b&gt;&lt;div&gt;&lt;b style=&quot;background-color: initial;&quot;&gt;&lt;br&gt;&lt;/b&gt;&lt;/div&gt;&lt;div style=&quot;text-align: left;&quot;&gt;&lt;b style=&quot;background-color: initial;&quot;&gt;#10&lt;/b&gt;&lt;br&gt;&lt;/div&gt;&lt;div style=&quot;text-align: left;&quot;&gt;&lt;b style=&quot;background-color: initial;&quot;&gt;&lt;br&gt;&lt;/b&gt;&lt;/div&gt;&lt;div style=&quot;text-align: left;&quot;&gt;&lt;b style=&quot;background-color: initial;&quot;&gt;&lt;br&gt;&lt;/b&gt;&lt;/div&gt;&lt;div&gt;&lt;b&gt;&lt;br&gt;&lt;/b&gt;&lt;/div&gt;&lt;div style=&quot;text-align: left;&quot;&gt;&lt;b&gt;#5&lt;/b&gt;&lt;/div&gt;&lt;div&gt;&lt;b&gt;&lt;br&gt;&lt;/b&gt;&lt;/div&gt;&lt;div&gt;&lt;b&gt;...&lt;/b&gt;&lt;/div&gt;&lt;div&gt;&lt;b&gt;&lt;br&gt;&lt;/b&gt;&lt;/div&gt;&lt;div style=&quot;text-align: left;&quot;&gt;&lt;b&gt;#m&lt;/b&gt;&lt;/div&gt;&lt;/div&gt;" style="rounded=1;whiteSpace=wrap;html=1;strokeWidth=2;dashed=1;align=center;" vertex="1" parent="1">
          <mxGeometry x="510" y="440" width="110" height="210" as="geometry" />
        </mxCell>
        <mxCell id="WRbdmsVeA1THmS9mT6Gk-59" value="" style="sketch=0;pointerEvents=1;shadow=0;dashed=0;html=1;strokeColor=none;fillColor=#434445;aspect=fixed;labelPosition=center;verticalLabelPosition=bottom;verticalAlign=top;align=center;outlineConnect=0;shape=mxgraph.vvd.document;" vertex="1" parent="1">
          <mxGeometry x="554" y="490" width="23.25" height="31.85" as="geometry" />
        </mxCell>
        <mxCell id="WRbdmsVeA1THmS9mT6Gk-60" value="" style="sketch=0;pointerEvents=1;shadow=0;dashed=0;html=1;strokeColor=none;fillColor=#434445;aspect=fixed;labelPosition=center;verticalLabelPosition=bottom;verticalAlign=top;align=center;outlineConnect=0;shape=mxgraph.vvd.document;" vertex="1" parent="1">
          <mxGeometry x="554" y="550" width="23.25" height="31.85" as="geometry" />
        </mxCell>
        <mxCell id="WRbdmsVeA1THmS9mT6Gk-61" value="" style="sketch=0;pointerEvents=1;shadow=0;dashed=0;html=1;strokeColor=none;fillColor=#434445;aspect=fixed;labelPosition=center;verticalLabelPosition=bottom;verticalAlign=top;align=center;outlineConnect=0;shape=mxgraph.vvd.document;" vertex="1" parent="1">
          <mxGeometry x="555" y="610" width="23.25" height="31.85" as="geometry" />
        </mxCell>
        <mxCell id="WRbdmsVeA1THmS9mT6Gk-62" value="" style="edgeStyle=none;noEdgeStyle=1;strokeColor=#990000;strokeWidth=2;" edge="1" parent="1">
          <mxGeometry width="100" height="100" relative="1" as="geometry">
            <mxPoint x="460" y="538" as="sourcePoint" />
            <mxPoint x="500" y="537.5" as="targetPoint" />
          </mxGeometry>
        </mxCell>
        <mxCell id="WRbdmsVeA1THmS9mT6Gk-64" value="" style="edgeStyle=none;noEdgeStyle=1;strokeColor=#990000;strokeWidth=2;" edge="1" parent="1">
          <mxGeometry width="100" height="100" relative="1" as="geometry">
            <mxPoint x="630" y="538" as="sourcePoint" />
            <mxPoint x="670" y="537.5" as="targetPoint" />
          </mxGeometry>
        </mxCell>
        <mxCell id="WRbdmsVeA1THmS9mT6Gk-65" value="数量20" style="text;spacingTop=-5;align=center;strokeWidth=3;fontSize=14;" vertex="1" parent="1">
          <mxGeometry x="554" y="660" width="30" height="20" as="geometry" />
        </mxCell>
        <mxCell id="WRbdmsVeA1THmS9mT6Gk-66" value="&lt;div style=&quot;&quot;&gt;&lt;b style=&quot;background-color: initial;&quot;&gt;&amp;nbsp; &amp;nbsp; &amp;nbsp;doucments&amp;nbsp; &amp;nbsp; &amp;nbsp;&amp;nbsp;&lt;/b&gt;&lt;/div&gt;&lt;div&gt;&lt;b&gt;&lt;br&gt;&lt;/b&gt;&lt;div&gt;&lt;b style=&quot;background-color: initial;&quot;&gt;&lt;br&gt;&lt;/b&gt;&lt;/div&gt;&lt;div style=&quot;text-align: left;&quot;&gt;&lt;b style=&quot;background-color: initial;&quot;&gt;#10&lt;/b&gt;&lt;br&gt;&lt;/div&gt;&lt;div style=&quot;text-align: left;&quot;&gt;&lt;b style=&quot;background-color: initial;&quot;&gt;&lt;br&gt;&lt;/b&gt;&lt;/div&gt;&lt;div style=&quot;text-align: left;&quot;&gt;&lt;b style=&quot;background-color: initial;&quot;&gt;&lt;br&gt;&lt;/b&gt;&lt;/div&gt;&lt;div&gt;&lt;b&gt;&lt;br&gt;&lt;/b&gt;&lt;/div&gt;&lt;div style=&quot;text-align: left;&quot;&gt;&lt;b&gt;#5&lt;/b&gt;&lt;/div&gt;&lt;div&gt;&lt;b&gt;&lt;br&gt;&lt;/b&gt;&lt;/div&gt;&lt;div&gt;&lt;b&gt;...&lt;/b&gt;&lt;/div&gt;&lt;div&gt;&lt;b&gt;&lt;br&gt;&lt;/b&gt;&lt;/div&gt;&lt;div style=&quot;text-align: left;&quot;&gt;&lt;b&gt;#m&lt;/b&gt;&lt;/div&gt;&lt;/div&gt;" style="rounded=1;whiteSpace=wrap;html=1;strokeWidth=2;dashed=1;align=center;" vertex="1" parent="1">
          <mxGeometry x="680" y="440" width="110" height="210" as="geometry" />
        </mxCell>
        <mxCell id="WRbdmsVeA1THmS9mT6Gk-67" value="" style="sketch=0;pointerEvents=1;shadow=0;dashed=0;html=1;strokeColor=none;fillColor=#434445;aspect=fixed;labelPosition=center;verticalLabelPosition=bottom;verticalAlign=top;align=center;outlineConnect=0;shape=mxgraph.vvd.document;" vertex="1" parent="1">
          <mxGeometry x="710" y="490" width="23.25" height="31.85" as="geometry" />
        </mxCell>
        <mxCell id="WRbdmsVeA1THmS9mT6Gk-68" value="" style="sketch=0;pointerEvents=1;shadow=0;dashed=0;html=1;strokeColor=none;fillColor=#434445;aspect=fixed;labelPosition=center;verticalLabelPosition=bottom;verticalAlign=top;align=center;outlineConnect=0;shape=mxgraph.vvd.document;" vertex="1" parent="1">
          <mxGeometry x="710" y="550" width="23.25" height="31.85" as="geometry" />
        </mxCell>
        <mxCell id="WRbdmsVeA1THmS9mT6Gk-69" value="" style="sketch=0;pointerEvents=1;shadow=0;dashed=0;html=1;strokeColor=none;fillColor=#434445;aspect=fixed;labelPosition=center;verticalLabelPosition=bottom;verticalAlign=top;align=center;outlineConnect=0;shape=mxgraph.vvd.document;" vertex="1" parent="1">
          <mxGeometry x="710" y="610" width="23.25" height="31.85" as="geometry" />
        </mxCell>
        <mxCell id="WRbdmsVeA1THmS9mT6Gk-70" value="数量20" style="text;spacingTop=-5;align=center;strokeWidth=3;fontSize=14;" vertex="1" parent="1">
          <mxGeometry x="724" y="660" width="30" height="20" as="geometry" />
        </mxCell>
        <mxCell id="WRbdmsVeA1THmS9mT6Gk-71" value="" style="sketch=0;pointerEvents=1;shadow=0;dashed=0;html=1;strokeColor=none;fillColor=#434445;aspect=fixed;labelPosition=center;verticalLabelPosition=bottom;verticalAlign=top;align=center;outlineConnect=0;shape=mxgraph.vvd.document;" vertex="1" parent="1">
          <mxGeometry x="754" y="490" width="23.25" height="31.85" as="geometry" />
        </mxCell>
        <mxCell id="WRbdmsVeA1THmS9mT6Gk-72" value="" style="sketch=0;pointerEvents=1;shadow=0;dashed=0;html=1;strokeColor=none;fillColor=#434445;aspect=fixed;labelPosition=center;verticalLabelPosition=bottom;verticalAlign=top;align=center;outlineConnect=0;shape=mxgraph.vvd.document;" vertex="1" parent="1">
          <mxGeometry x="754" y="550" width="23.25" height="31.85" as="geometry" />
        </mxCell>
        <mxCell id="WRbdmsVeA1THmS9mT6Gk-73" value="" style="sketch=0;pointerEvents=1;shadow=0;dashed=0;html=1;strokeColor=none;fillColor=#434445;aspect=fixed;labelPosition=center;verticalLabelPosition=bottom;verticalAlign=top;align=center;outlineConnect=0;shape=mxgraph.vvd.document;" vertex="1" parent="1">
          <mxGeometry x="754" y="610" width="23.25" height="31.85" as="geometry" />
        </mxCell>
        <mxCell id="WRbdmsVeA1THmS9mT6Gk-74" value="扩展" style="text;spacingTop=-5;align=center;strokeWidth=3;fontSize=14;" vertex="1" parent="1">
          <mxGeometry x="630" y="508" width="30" height="20" as="geometry" />
        </mxCell>
      </root>
    </mxGraphModel>
  </diagram>
</mxfile>
